<svg xmlns="http://www.w3.org/2000/svg" viewBox="0 0 200 200">
  <!-- HDGraph mark: a sunburst chart as the app draws it, hue follows the angle; the outer ring's sectors stick out as rays. -->
  <g stroke="#FFFFFF" stroke-width="2" stroke-linejoin="round">
    <path fill="#BFD846" d="M100.00 54.00A46 46 0 0 1 129.57 135.24L111.57 113.79A18 18 0 0 0 100.00 82.00Z"/>
    <path fill="#46D8D2" d="M129.57 135.24A46 46 0 0 1 73.62 137.68L89.68 114.74A18 18 0 0 0 111.57 113.79Z"/>
    <path fill="#6446D8" d="M73.62 137.68A46 46 0 0 1 56.77 84.27L83.09 93.84A18 18 0 0 0 89.68 114.74Z"/>
    <path fill="#D846BF" d="M56.77 84.27A46 46 0 0 1 77.00 60.16L91.00 84.41A18 18 0 0 0 83.09 93.84Z"/>
    <path fill="#D8466A" d="M77.00 60.16A46 46 0 0 1 100.00 54.00L100.00 82.00A18 18 0 0 0 91.00 84.41Z"/>
    <path fill="#DCB15B" d="M100.00 28.00A72 72 0 0 1 170.91 87.50L145.30 92.01A46 46 0 0 0 100.00 54.00Z"/>
    <path fill="#8BDC5B" d="M170.91 87.50A72 72 0 0 1 165.25 130.43L141.69 119.44A46 46 0 0 0 145.30 92.01Z"/>
    <path fill="#5BDC6B" d="M165.25 130.43A72 72 0 0 1 146.28 155.16L129.57 135.24A46 46 0 0 0 141.69 119.44Z"/>
    <path fill="#5BDCB6" d="M146.28 155.16A72 72 0 0 1 93.72 171.73L95.99 145.82A46 46 0 0 0 129.57 135.24Z"/>
    <path fill="#5BB1DC" d="M93.72 171.73A72 72 0 0 1 58.70 158.98L73.62 137.68A46 46 0 0 0 95.99 145.82Z"/>
    <path fill="#5B60DC" d="M58.70 158.98A72 72 0 0 1 29.09 112.50L54.70 107.99A46 46 0 0 0 73.62 137.68Z"/>
    <path fill="#A65BDC" d="M29.09 112.50A72 72 0 0 1 32.34 75.37L56.77 84.27A46 46 0 0 0 54.70 107.99Z"/>
    <path fill="#DC5BD4" d="M32.34 75.37A72 72 0 0 1 51.82 46.49L69.22 65.82A46 46 0 0 0 56.77 84.27Z"/>
    <path fill="#DC5BA8" d="M51.82 46.49A72 72 0 0 1 64.00 37.65L77.00 60.16A46 46 0 0 0 69.22 65.82Z"/>
    <path fill="#E19A70" d="M100.00 2.00A98.0 98.0 0 0 1 169.30 30.70L150.91 49.09A72 72 0 0 0 100.00 28.00Z"/>
    <path fill="#DCE170" d="M157.98 42.02A82.0 82.0 0 0 1 180.75 85.76L170.91 87.50A72 72 0 0 0 150.91 49.09Z"/>
    <path fill="#A8E170" d="M188.63 84.37A90.0 90.0 0 0 1 188.63 115.63L170.91 112.50A72 72 0 0 0 170.91 87.50Z"/>
    <path fill="#70E1A8" d="M148.85 158.22A76.0 76.0 0 0 1 125.99 171.42L124.63 167.66A72 72 0 0 0 146.28 155.16Z"/>
    <path fill="#70E1D3" d="M132.83 190.21A96.0 96.0 0 0 1 91.63 195.63L93.72 171.73A72 72 0 0 0 124.63 167.66Z"/>
    <path fill="#7087E1" d="M50.67 170.45A86.0 86.0 0 0 1 25.52 143.00L37.65 136.00A72 72 0 0 0 58.70 158.98Z"/>
    <path fill="#B270E1" d="M7.43 116.32A94.0 94.0 0 0 1 11.67 67.85L32.34 75.37A72 72 0 0 0 29.09 112.50Z"/>
    <path fill="#E170D9" d="M24.82 72.64A80.0 80.0 0 0 1 46.47 40.55L51.82 46.49A72 72 0 0 0 32.34 75.37Z"/>
  </g>
  <circle cx="100" cy="100" r="18" fill="#E8E8E8"/>
</svg>
